<?xml version="1.0" encoding="utf-8"?>
<!-- Generator: Adobe Illustrator 16.0.0, SVG Export Plug-In . SVG Version: 6.00 Build 0)  -->
<!DOCTYPE svg PUBLIC "-//W3C//DTD SVG 1.1//EN" "http://www.w3.org/Graphics/SVG/1.1/DTD/svg11.dtd">
<svg version="1.1" id="Layer_1" xmlns="http://www.w3.org/2000/svg" xmlns:xlink="http://www.w3.org/1999/xlink" x="0px" y="0px"
	 width="1024px" height="768px" viewBox="0 0 1024 768" enable-background="new 0 0 1024 768" xml:space="preserve">
<g>
	<linearGradient id="SVGID_1_" gradientUnits="userSpaceOnUse" x1="501.0527" y1="274.7661" x2="486.2132" y2="235.7148">
		<stop  offset="0.0108" style="stop-color:#6A6A6A"/>
		<stop  offset="0.7" style="stop-color:#D7D7D7"/>
		<stop  offset="1" style="stop-color:#C4D36E"/>
	</linearGradient>
	<path fill="url(#SVGID_1_)" d="M516.795,231.729c0,0-40.372-4.737-49.504,19.255c-9.132,23.992,26.278,68.535,49.677,66.647
		l0.566-1.014C517.534,316.617,426.487,262.455,516.795,231.729z"/>
	<linearGradient id="SVGID_2_" gradientUnits="userSpaceOnUse" x1="473.0215" y1="341.9727" x2="508.7766" y2="279.9427">
		<stop  offset="0" style="stop-color:#DADBDA"/>
		<stop  offset="0.0497" style="stop-color:#D7D8D7"/>
		<stop  offset="0.0909" style="stop-color:#CDCECC"/>
		<stop  offset="0.1291" style="stop-color:#BBBDBB"/>
		<stop  offset="0.1655" style="stop-color:#A3A5A3"/>
		<stop  offset="0.2002" style="stop-color:#858684"/>
		<stop  offset="0.2204" style="stop-color:#6F716E"/>
		<stop  offset="0.5484" style="stop-color:#FFFFFF"/>
		<stop  offset="0.5924" style="stop-color:#CEEDF8"/>
		<stop  offset="0.6389" style="stop-color:#A2DDF2"/>
		<stop  offset="0.6839" style="stop-color:#7FD0ED"/>
		<stop  offset="0.7261" style="stop-color:#66C7E9"/>
		<stop  offset="0.7646" style="stop-color:#57C2E7"/>
		<stop  offset="0.796" style="stop-color:#52C0E6"/>
		<stop  offset="1" style="stop-color:#1450A0"/>
	</linearGradient>
	<path fill="url(#SVGID_2_)" d="M453.146,303.383c0,0,12.676,40.531,49.233,40.435l13.212-8.445l14.109-18.66l6.242-33.893
		l-2.283-15.124l-4.854-4.053l-2.488,0.33c0,0,4.844,28.925-11.87,58.423l-10.505-3.723l-27.261-0.732L453.146,303.383z"/>
	<linearGradient id="SVGID_3_" gradientUnits="userSpaceOnUse" x1="503.6216" y1="282.8213" x2="565.188" y2="282.8213">
		<stop  offset="0" style="stop-color:#9BB32E"/>
		<stop  offset="1" style="stop-color:#0CA6EA"/>
	</linearGradient>
	<path fill="url(#SVGID_3_)" d="M531.079,260.941l-0.529,0.633l-0.882-0.029l-20.114,2.505l-22.117,3.946l-4.445,6.489l-2.34,6.576
		l0,0l0.844,1.542c0,0,18.426-15.846,49.046-19.177l29.814,41.713C581.738,252.961,531.079,260.941,531.079,260.941z"/>
	<g>
		<radialGradient id="SVGID_4_" cx="484.6929" cy="262.5073" r="8.7743" gradientUnits="userSpaceOnUse">
			<stop  offset="0" style="stop-color:#FFFFFF"/>
			<stop  offset="1" style="stop-color:#000000"/>
		</radialGradient>
		<polygon fill="url(#SVGID_4_)" points="474.525,263.792 474.116,262.987 490.689,254.578 491.187,255.56 		"/>
	</g>
	<g>
		
			<radialGradient id="SVGID_5_" cx="536.7412" cy="366.7529" r="8.775" gradientTransform="matrix(0.4211 0.907 -0.9071 0.4211 604.289 -311.9792)" gradientUnits="userSpaceOnUse">
			<stop  offset="0" style="stop-color:#FFFFFF"/>
			<stop  offset="1" style="stop-color:#000000"/>
		</radialGradient>
		<polygon fill="url(#SVGID_5_)" points="492.182,320.604 492.741,319.894 507.348,331.383 506.667,332.249 		"/>
	</g>
	
		<radialGradient id="SVGID_6_" cx="514.6602" cy="255.9058" r="46.1055" gradientTransform="matrix(1 0 0 1.5548 0 -141.9714)" gradientUnits="userSpaceOnUse">
		<stop  offset="0.35" style="stop-color:#D6DF48"/>
		<stop  offset="0.8242" style="stop-color:#718F3A"/>
	</radialGradient>
	<path fill="url(#SVGID_6_)" d="M543.788,261.844c18.964,1.691,21.813,17.538,21.813,17.538s-2.921-31.517-28.677-43.931
		c-2.409-1.116-4.301-1.747-5.604-2.102c-27.053-6.329-83.043,5.23-50.669,47.712C480.652,281.061,503.538,258.254,543.788,261.844z
		"/>
	<path fill="#66853E" d="M470.938,257.912c0,0-0.982,6.261,5.033,15.1c0,0,21.26-30.375,80.676-19.326l-4.687-6.294
		C551.961,247.392,515.991,237.779,470.938,257.912z"/>
	<radialGradient id="SVGID_7_" cx="501.5947" cy="238.8252" r="24.2052" gradientUnits="userSpaceOnUse">
		<stop  offset="0" style="stop-color:#FFFFFF"/>
		<stop  offset="1" style="stop-color:#000000"/>
	</radialGradient>
	<path opacity="0.4" fill="url(#SVGID_7_)" d="M482.944,258.623c0,0-0.424,3.982,3.652,9.373c0,0,13.078-19.761,50.93-14.652
		l-3.54-4.019C533.986,249.325,510.751,244.499,482.944,258.623z"/>
	<g>
		<radialGradient id="SVGID_8_" cx="484.2603" cy="263.0532" r="8.7749" gradientUnits="userSpaceOnUse">
			<stop  offset="0" style="stop-color:#FFFFFF"/>
			<stop  offset="1" style="stop-color:#000000"/>
		</radialGradient>
		<polygon fill="url(#SVGID_8_)" points="474.093,264.337 473.684,263.532 490.256,255.123 490.754,256.105 		"/>
	</g>
	
		<radialGradient id="SVGID_9_" cx="531.8926" cy="304.52" r="59.5485" gradientTransform="matrix(0.9208 0.39 -0.2431 0.5739 116.1291 -77.6724)" gradientUnits="userSpaceOnUse">
		<stop  offset="0.1" style="stop-color:#56CBE6"/>
		<stop  offset="1" style="stop-color:#1450A0"/>
	</radialGradient>
	<path fill="url(#SVGID_9_)" d="M514.31,327.858c-9.665,17.847-27.555,13.012-27.555,13.012s30.409,10.316,53.902-5.978
		c2.161-1.547,3.639-2.883,4.591-3.841c18.838-20.423,36.477-74.642-16.443-67.407C528.805,263.645,534.311,292.745,514.31,327.858z
		"/>
	<radialGradient id="SVGID_10_" cx="534.0381" cy="303.5176" r="31.6859" gradientUnits="userSpaceOnUse">
		<stop  offset="0" style="stop-color:#008DD5"/>
		<stop  offset="0.2648" style="stop-color:#028AD2"/>
		<stop  offset="0.4845" style="stop-color:#077FC8"/>
		<stop  offset="0.6881" style="stop-color:#106EB7"/>
		<stop  offset="0.8808" style="stop-color:#1D569F"/>
		<stop  offset="1" style="stop-color:#27438C"/>
	</radialGradient>
	<path fill="url(#SVGID_10_)" d="M553.63,266.403c0,0-4.966-3.938-15.622-3.058c0,0,15.33,34.215-23.562,80.473l8.367-1.329
		C522.813,342.489,548.947,315.529,553.63,266.403z"/>
	
		<radialGradient id="SVGID_11_" cx="594.8271" cy="226.0625" r="24.2038" gradientTransform="matrix(-0.4928 0.8702 -0.8702 -0.4928 1044.9813 -103.73)" gradientUnits="userSpaceOnUse">
		<stop  offset="0" style="stop-color:#FFFFFF"/>
		<stop  offset="1" style="stop-color:#000000"/>
	</radialGradient>
	<path opacity="0.4" fill="url(#SVGID_11_)" d="M547.096,276.502c0,0-3.26-2.332-9.957-1.44c0,0,10.75,21.115-12.348,51.536
		l5.242-1.101C530.033,325.497,545.682,307.657,547.096,276.502z"/>
	<g>
		
			<radialGradient id="SVGID_12_" cx="544.1367" cy="344.2075" r="8.775" gradientTransform="matrix(-0.5637 0.8259 -0.8259 -0.5639 1133.1642 19.5511)" gradientUnits="userSpaceOnUse">
			<stop  offset="0" style="stop-color:#FFFFFF"/>
			<stop  offset="1" style="stop-color:#000000"/>
		</radialGradient>
		<polygon fill="url(#SVGID_12_)" points="546.823,265.732 547.721,265.849 545.324,284.279 544.23,284.137 		"/>
	</g>
	<linearGradient id="SVGID_13_" gradientUnits="userSpaceOnUse" x1="482.2798" y1="279.4536" x2="483.7285" y2="312.2317">
		<stop  offset="0" style="stop-color:#7A7A7A"/>
		<stop  offset="0.5" style="stop-color:#D7D7D7"/>
		<stop  offset="0.9892" style="stop-color:#6A6A6A"/>
	</linearGradient>
	<path fill="url(#SVGID_13_)" d="M469.486,271.719c-10.216-17.536,3.827-29.707,3.827-29.707s-25.235,20.013-23.537,48.553
		c0.198,2.649,0.571,4.608,0.893,5.917c7.647,26.712,44.959,70.11,66.299,21.148C516.968,317.631,489.078,307.062,469.486,271.719z"
		/>
	<path fill="#535250" d="M501.737,337.114c0,0,6.142-2.042,10.933-11.602c0,0-37.375-4.701-56.661-61.977l-3.404,7.773
		C452.605,271.308,462.212,307.568,501.737,337.114z"/>
	
		<radialGradient id="SVGID_14_" cx="624.6035" cy="122.9424" r="24.2046" gradientTransform="matrix(-0.487 -0.8734 0.8734 -0.487 667.9658 925.1818)" gradientUnits="userSpaceOnUse">
		<stop  offset="0" style="stop-color:#FFFFFF"/>
		<stop  offset="1" style="stop-color:#000000"/>
	</radialGradient>
	<path opacity="0.2" fill="url(#SVGID_14_)" d="M497.535,326.429c0,0,3.685-1.569,6.407-7.755c0,0-23.627-1.799-37.598-37.347
		l-1.786,5.048C464.558,286.375,471.657,309.02,497.535,326.429z"/>
	<g>
		
			<radialGradient id="SVGID_15_" cx="483.1953" cy="261.7959" r="8.7617" gradientTransform="matrix(0.9861 0.1659 -0.1659 0.9861 53.8826 -98.9212)" gradientUnits="userSpaceOnUse">
			<stop  offset="0" style="stop-color:#FFFFFF"/>
			<stop  offset="1" style="stop-color:#000000"/>
		</radialGradient>
		<path fill="url(#SVGID_15_)" d="M476.138,245.06l-0.16-0.583c6.339-8.141,21.2-10.626,21.831-10.728l0.082,0.517
			C497.739,234.291,482.24,237.226,476.138,245.06z"/>
	</g>
	<g>
		
			<radialGradient id="SVGID_16_" cx="535.585" cy="368.9512" r="8.7736" gradientTransform="matrix(0.4211 0.907 -0.9071 0.4211 604.289 -311.9792)" gradientUnits="userSpaceOnUse">
			<stop  offset="0" style="stop-color:#FFFFFF"/>
			<stop  offset="1" style="stop-color:#000000"/>
		</radialGradient>
		<polygon fill="url(#SVGID_16_)" points="489.702,320.481 490.26,319.771 504.866,331.26 504.185,332.126 		"/>
	</g>
	<g>
		
			<radialGradient id="SVGID_17_" cx="613.1992" cy="202.2217" r="20.5821" gradientTransform="matrix(-0.4577 -0.8891 0.8891 -0.4577 616.5461 905.6462)" gradientUnits="userSpaceOnUse">
			<stop  offset="0" style="stop-color:#FFFFFF"/>
			<stop  offset="1" style="stop-color:#000000"/>
		</radialGradient>
		<path fill="url(#SVGID_17_)" d="M543.921,261.272l-0.061,0.486c-27-3.408-56.067,12.678-56.357,12.84l-0.241-0.428
			C487.552,274.008,516.763,257.844,543.921,261.272z"/>
	</g>
	<g>
		
			<radialGradient id="SVGID_18_" cx="589.3105" cy="418.9238" r="20.5817" gradientTransform="matrix(-0.5564 0.8309 -0.8309 -0.5564 1163.9943 34.5751)" gradientUnits="userSpaceOnUse">
			<stop  offset="0" style="stop-color:#FFFFFF"/>
			<stop  offset="1" style="stop-color:#000000"/>
		</radialGradient>
		<path fill="url(#SVGID_18_)" d="M468.554,269.638l0.454-0.181c10.089,25.272,38.236,42.92,38.519,43.094l-0.258,0.419
			C506.985,312.794,478.698,295.061,468.554,269.638z"/>
	</g>
	<g>
		<radialGradient id="SVGID_19_" cx="522.2578" cy="298.5967" r="20.5821" gradientUnits="userSpaceOnUse">
			<stop  offset="0" style="stop-color:#FFFFFF"/>
			<stop  offset="1" style="stop-color:#000000"/>
		</radialGradient>
		<path fill="url(#SVGID_19_)" d="M515.22,326.736l-0.405-0.277c15.387-22.444,14.392-55.652,14.378-55.985l0.492-0.017
			C529.696,270.791,530.696,304.161,515.22,326.736z"/>
	</g>
	<g opacity="0.5">
		<g>
			
				<radialGradient id="SVGID_20_" cx="720.8721" cy="291.1553" r="20.5821" gradientTransform="matrix(-0.4151 -0.9098 0.9098 -0.4151 543.6113 1026.9408)" gradientUnits="userSpaceOnUse">
				<stop  offset="0" style="stop-color:#FFFFFF"/>
				<stop  offset="1" style="stop-color:#000000"/>
			</radialGradient>
			<path fill="url(#SVGID_20_)" d="M537.794,244.958l-0.085,0.483c-26.808-4.683-56.604,10.008-56.903,10.156l-0.219-0.439
				C480.884,255.007,510.83,240.245,537.794,244.958z"/>
		</g>
		<g>
			
				<radialGradient id="SVGID_21_" cx="715.0762" cy="292.6577" r="20.5821" gradientTransform="matrix(-0.4522 -0.8919 0.8919 -0.4522 574.037 1028.0753)" gradientUnits="userSpaceOnUse">
				<stop  offset="0" style="stop-color:#FFFFFF"/>
				<stop  offset="1" style="stop-color:#000000"/>
			</radialGradient>
			<path fill="url(#SVGID_21_)" d="M539.981,251.512l-0.065,0.486c-26.976-3.575-56.145,12.33-56.435,12.49l-0.237-0.429
				C483.536,263.898,512.846,247.914,539.981,251.512z"/>
		</g>
	</g>
	<g opacity="0.7">
		<g>
			
				<radialGradient id="SVGID_22_" cx="536.998" cy="323.0767" r="20.5822" gradientTransform="matrix(0.9926 0.1214 -0.1214 0.9926 46.8311 -79.4243)" gradientUnits="userSpaceOnUse">
				<stop  offset="0" style="stop-color:#FFFFFF"/>
				<stop  offset="1" style="stop-color:#000000"/>
			</radialGradient>
			<path fill="url(#SVGID_22_)" d="M530.229,333.53l-0.366-0.324c17.999-20.41,21.043-53.493,21.071-53.825l0.488,0.042
				C551.395,279.757,548.335,313.001,530.229,333.53z"/>
		</g>
		<g>
			
				<radialGradient id="SVGID_23_" cx="529.9941" cy="315.6484" r="20.5807" gradientTransform="matrix(0.9968 0.0805 -0.0805 0.9968 29.89 -52.8136)" gradientUnits="userSpaceOnUse">
				<stop  offset="0" style="stop-color:#FFFFFF"/>
				<stop  offset="1" style="stop-color:#000000"/>
			</radialGradient>
			<path fill="url(#SVGID_23_)" d="M523.497,331.971l-0.379-0.309c17.143-21.132,18.822-54.313,18.836-54.646l0.489,0.022
				C542.431,277.372,540.742,310.714,523.497,331.971z"/>
		</g>
	</g>
	<g>
		<radialGradient id="SVGID_24_" cx="535.0498" cy="269.749" r="22.2331" gradientUnits="userSpaceOnUse">
			<stop  offset="0" style="stop-color:#FFFFFF"/>
			<stop  offset="1" style="stop-color:#000000"/>
		</radialGradient>
		<path fill="url(#SVGID_24_)" d="M564.458,278.703c-0.009-0.072-1.048-7.346-8.89-12.351c-7.202-4.596-21.796-8.193-50.44,0.786
			l-0.22-0.703c23.229-7.281,40.412-7.512,51.077-0.691c8.124,5.198,9.163,12.554,9.205,12.864L564.458,278.703z"/>
	</g>
	<g>
		<radialGradient id="SVGID_25_" cx="466.3838" cy="281.8672" r="7.6908" gradientUnits="userSpaceOnUse">
			<stop  offset="0" style="stop-color:#FFFFFF"/>
			<stop  offset="0.9892" style="stop-color:#000000"/>
		</radialGradient>
		<path fill="url(#SVGID_25_)" d="M467.488,290.374c-0.843-0.675-5.97-11.739-7.521-15.114l0.893-0.41
			c2.47,5.373,6.622,14.133,7.255,14.769L467.488,290.374z"/>
	</g>
	<g opacity="0.5">
		
			<radialGradient id="SVGID_26_" cx="485.3628" cy="301.1367" r="9.8692" gradientTransform="matrix(0.9945 0.1052 -0.1052 0.9945 44.6604 -33.3451)" gradientUnits="userSpaceOnUse">
			<stop  offset="0" style="stop-color:#FFFFFF"/>
			<stop  offset="0.9892" style="stop-color:#000000"/>
		</radialGradient>
		<path fill="url(#SVGID_26_)" d="M506.362,325.804c-0.625-0.259-15.403-6.473-21.716-16.645l0.834-0.518
			c6.147,9.907,21.107,16.195,21.257,16.256L506.362,325.804z"/>
	</g>
	<g>
		<radialGradient id="SVGID_27_" cx="471.4224" cy="302.8008" r="19.0443" gradientUnits="userSpaceOnUse">
			<stop  offset="0" style="stop-color:#FFFFFF"/>
			<stop  offset="0.9892" style="stop-color:#000000"/>
		</radialGradient>
		<path fill="url(#SVGID_27_)" d="M486.443,324.724c-0.196-0.161-19.72-16.432-30.665-43.479l0.91-0.368
			c10.854,26.819,30.185,42.93,30.378,43.09L486.443,324.724z"/>
	</g>
</g>
<path fill="#332B29" d="M272.776,413.217h-22.932v-45.049c0-2.895,2.301-5.417,5.195-5.417h18.554c9.5,0,15.808,3.785,15.808,12.764
	c0,5.344-2.152,8.535-6.086,10.464c4.973,1.932,7.867,5.195,7.867,11.876C291.182,408.318,283.686,413.217,272.776,413.217z
	 M271.44,371.507h-11.429v10.835h11.578c4.082,0,7.421-1.261,7.421-5.492C279.01,372.621,276.116,371.507,271.44,371.507z
	 M271.886,390.878h-11.875v13.21h12.022c5.122,0,8.238-1.484,8.238-6.53C280.272,392.361,277.229,390.878,271.886,390.878z"/>
<path fill="#332B29" d="M328.74,393.771c0,13.508-6.011,20.336-17.886,20.336c-11.874,0-17.811-6.828-17.811-20.336
	c0-13.656,5.937-20.409,17.811-20.409C322.729,373.363,328.74,380.116,328.74,393.771z M303.062,393.771
	c0.074,7.645,2.671,11.504,7.718,11.504c5.046,0,7.569-4.007,7.644-11.801c0-7.644-2.523-11.429-7.57-11.429
	C305.659,382.046,303.062,385.979,303.062,393.771z"/>
<path fill="#332B29" d="M365.038,397.558c0,6.752-1.707,11.206-5.195,13.358c-3.488,2.004-7.347,3.041-11.577,3.041
	c-4.082,0-7.718-1.11-11.132-3.338c-3.414-2.152-5.121-6.457-5.121-13.062v-23.602h9.871v25.604c0,4.379,2.227,6.531,6.679,6.531
	c4.454,0,6.68-2.152,6.68-6.531v-20.707c-0.074-3.266,1.484-4.898,4.75-4.898h5.047V397.558z"/>
<path fill="#332B29" d="M395.175,413.217c-3.266-0.223-4.898-1.782-4.898-4.898v-20.186c-0.223-4.083-2.449-6.087-6.828-6.087
	c-4.379,0-6.605,2.003-6.679,6.087v25.084H366.75v-23.082c0-11.207,5.64-16.772,16.846-16.772c11.207,0,16.699,5.565,16.624,16.772
	v23.082H395.175z"/>
<path fill="#332B29" d="M438.298,367.723v28.5c0,11.798-6.16,17.661-18.405,17.587c-12.171-0.223-18.257-6.826-18.257-19.888
	c0-13.361,5.195-20.188,15.66-20.559c4.898,0,8.682,2.003,11.206,6.085V362.75h4.899
	C436.071,362.75,438.298,365.051,438.298,367.723z M411.803,393.475c-0.074,7.941,2.598,11.948,8.238,11.948
	c5.641,0,8.46-4.007,8.46-11.948c-0.223-7.57-2.969-11.28-8.312-11.28S412.101,385.904,411.803,393.475z"/>
<path fill="#332B29" d="M450.03,367.574v45.643h-9.871V362.75h5.121C447.877,362.75,450.03,364.977,450.03,367.574z"/>
<path fill="#332B29" d="M469.4,414.107c-11.874-0.372-17.812-7.274-17.812-20.633c0-13.359,6.011-20.038,17.96-20.112
	c12.468,0,18.331,7.644,17.589,23.007h-25.381c0.372,6.012,2.969,9.053,7.792,9.053c2.301,0,4.453-0.965,6.382-2.819
	c0.89-0.965,2.003-1.409,3.34-1.409h7.273C484.391,409.506,479.048,414.107,469.4,414.107z M461.904,389.32h14.769
	c-0.594-5.197-3.043-7.869-7.273-7.869S462.647,384.124,461.904,389.32z"/>
<path fill="#332B29" d="M507.405,406.092c4.156,0,6.235-1.188,6.235-3.71c0-2.005-3.415-3.637-10.168-4.824
	c-8.684-1.56-13.136-5.418-13.211-11.579c0-8.46,6.68-12.468,15.66-12.616c5.046,0,9.055,1.113,12.021,3.339
	c2.896,2.301,4.453,5.493,4.676,9.574h-6.233c-2.301-0.074-3.785-0.891-4.379-2.449c-0.667-1.706-2.671-2.671-5.937-2.671
	c-3.858,0-5.789,1.04-5.789,3.043s2.523,3.562,7.644,4.527c6.679,1.336,11.058,3.044,13.211,5.047
	c1.854,1.93,2.745,4.305,2.745,6.977c0,9.647-7.569,13.209-17.959,13.209c-5.493,0-9.648-1.188-12.32-3.485
	c-2.969-2.227-4.453-5.642-4.453-10.169h10.092C499.465,404.608,502.582,406.092,507.405,406.092z"/>
<path fill="#332B29" d="M543.852,406.092c4.157,0,6.235-1.188,6.235-3.71c0-2.005-3.414-3.637-10.168-4.824
	c-8.683-1.56-13.136-5.418-13.21-11.579c0-8.46,6.68-12.468,15.658-12.616c5.047,0,9.056,1.113,12.022,3.339
	c2.896,2.301,4.454,5.493,4.676,9.574h-6.233c-2.301-0.074-3.784-0.891-4.379-2.449c-0.667-1.706-2.672-2.671-5.938-2.671
	c-3.858,0-5.789,1.04-5.789,3.043s2.523,3.562,7.646,4.527c6.678,1.336,11.058,3.044,13.21,5.047
	c1.854,1.93,2.745,4.305,2.745,6.977c0,9.647-7.569,13.209-17.96,13.209c-5.492,0-9.647-1.188-12.318-3.485
	c-2.97-2.227-4.453-5.642-4.453-10.169h10.092C535.912,404.608,539.027,406.092,543.852,406.092z"/>
<g>
	<g>
		<path fill="#606771" d="M608.208,412.936h-5.739l-29.5-44.717v44.717h-5.341v-51.392h6.942l28.365,43.116v-43.116h5.272V412.936z"
			/>
		<path fill="#606771" d="M643.644,408.132c-3.938,3.937-8.676,5.871-14.149,5.673c-5.272-0.135-9.811-2.137-13.481-6.007
			c-3.672-3.871-5.474-8.478-5.474-13.815c0-5.541,2.002-10.346,5.941-14.285c3.938-4.004,8.676-5.939,14.149-5.739
			c5.272,0.201,9.811,2.203,13.482,6.14c3.669,3.872,5.538,8.477,5.538,13.817C649.65,399.388,647.648,404.127,643.644,408.132z
			 M629.563,408.798c4.202,0.201,7.74-1.2,10.678-4.338c3.002-3.138,4.405-6.741,4.338-10.946
			c-0.133-4.004-1.602-7.408-4.338-10.278s-6.007-4.271-9.879-4.271c-4.069-0.066-7.475,1.402-10.345,4.271
			c-2.869,2.87-4.271,6.274-4.338,10.346c-0.067,4.004,1.2,7.54,3.938,10.545C622.353,407.129,625.623,408.665,629.563,408.798z"/>
		<path fill="#606771" d="M665.331,413.737c-9.277,0-13.884-3.937-13.884-11.813v-40.38h5.141v13.282h8.743v4.739h-8.743v21.492
			c0,5.672,2.937,8.476,8.743,8.476V413.737z"/>
		<path fill="#606771" d="M671.469,370.355h-5.005v-8.877h5.005V370.355z M671.469,412.936h-5.005v-38.042h5.005V412.936z"/>
		<path fill="#606771" d="M706.841,408.132c-3.937,3.937-8.676,5.871-14.149,5.673c-5.272-0.135-9.811-2.137-13.481-6.007
			c-3.672-3.871-5.474-8.478-5.474-13.815c0-5.541,2.003-10.346,5.941-14.285c3.938-4.004,8.676-5.939,14.149-5.739
			c5.272,0.201,9.811,2.203,13.482,6.14c3.669,3.872,5.538,8.477,5.538,13.817C712.848,399.388,710.846,404.127,706.841,408.132z
			 M692.76,408.798c4.202,0.201,7.741-1.2,10.678-4.338c3.002-3.138,4.405-6.741,4.338-10.946
			c-0.133-4.004-1.602-7.408-4.338-10.278s-6.007-4.271-9.879-4.271c-4.069-0.066-7.475,1.402-10.345,4.271
			c-2.869,2.87-4.271,6.274-4.338,10.346c-0.067,4.004,1.201,7.54,3.938,10.545C685.55,407.129,688.82,408.665,692.76,408.798z"/>
		<path fill="#606771" d="M748.218,412.936h-5.14v-22.224c0-3.205-1.203-5.941-3.538-8.278c-2.336-2.336-5.005-3.47-8.143-3.47
			c-3.137,0-5.939,1.134-8.274,3.47c-2.338,2.336-3.471,5.073-3.471,8.278v22.224h-5.14v-21.689c0-4.94,1.601-9.012,4.806-12.282
			c3.203-3.271,7.208-4.939,12.079-4.939c4.807,0,8.812,1.668,12.014,4.939c3.203,3.27,4.807,7.341,4.807,12.282V412.936z"/>
		<path fill="#606771" d="M755.488,402.924c0,1.269,0.734,2.604,2.136,4.005c1.4,1.403,2.937,2.07,4.538,2.002
			c2.135-0.065,3.804-0.666,5.072-1.935c1.135-1.135,1.669-2.669,1.736-4.538c0.065-3.271-1.804-5.474-5.541-6.674l-4.471-1.403
			c-4.673-1.466-7.142-4.671-7.342-9.544c-0.134-2.937,0.867-5.473,2.937-7.542c2.135-2.069,4.671-3.204,7.676-3.337
			c2.602-0.133,5.005,0.734,7.207,2.536c2.271,1.802,3.472,4.004,3.672,6.673l0.065,1.135h-5.338v-0.867
			c0-2.67-2.672-4.472-5.606-4.472c-2.872,0.066-5.272,2.269-5.34,5.206c-0.201,2.737,1.468,4.672,4.871,5.807l4.406,1.469
			c5.071,1.734,7.809,5.138,8.142,10.145c0.268,3.403-0.935,6.407-3.604,8.943c-2.669,2.469-5.739,3.604-9.21,3.403
			c-3.205-0.2-5.874-1.536-8.076-3.871c-2.136-2.336-3.203-5.14-3.203-8.41h5.272V402.924z"/>
	</g>
</g>
<g>
	<path fill="#332B29" d="M340.227,437.887l0.867-1.007c1.007,1.148,2.647,2.272,4.896,2.272c3.185,0,4.099-1.779,4.099-3.115
		c0-4.591-9.369-2.2-9.369-7.658c0-2.554,2.295-4.17,5.129-4.17c2.318,0,4.099,0.821,5.293,2.202l-0.89,0.982
		c-1.125-1.357-2.717-1.967-4.474-1.967c-2.084,0-3.654,1.196-3.654,2.882c0,4.005,9.369,1.803,9.369,7.635
		c0,2.016-1.335,4.428-5.551,4.428C343.366,440.371,341.422,439.316,340.227,437.887z"/>
	<path fill="#332B29" d="M358.71,434.421c0-3.302,2.108-5.925,5.41-5.925c3.35,0,5.458,2.623,5.458,5.925
		c0,3.303-2.108,5.95-5.458,5.95C360.818,440.371,358.71,437.724,358.71,434.421z M368.267,434.421c0-2.506-1.476-4.824-4.146-4.824
		c-2.623,0-4.122,2.318-4.122,4.824c0,2.529,1.499,4.85,4.122,4.85C366.791,439.271,368.267,436.95,368.267,434.421z"/>
	<path fill="#332B29" d="M377.802,440.09v-10.236h-1.874v-1.076h1.874v-1.03c0-2.203,1.171-3.515,3.068-3.515
		c0.796,0,1.429,0.163,2.155,0.798l-0.585,0.889c-0.375-0.351-0.843-0.586-1.452-0.586c-1.288,0-1.944,0.891-1.944,2.414v1.03h2.295
		v1.076h-2.295v10.236H377.802z"/>
	<path fill="#332B29" d="M388.532,437.911v-8.058h-1.874v-1.076h1.874v-3.092h1.241v3.092h2.295v1.076h-2.295v7.87
		c0,0.913,0.375,1.547,1.171,1.547c0.539,0,1.007-0.26,1.265-0.54l0.468,0.937c-0.445,0.423-0.983,0.704-1.92,0.704
		C389.258,440.371,388.532,439.458,388.532,437.911z"/>
	<path fill="#332B29" d="M409.121,440.09l-3.162-9.674l-3.185,9.674h-1.171l-3.677-11.313h1.312l2.998,9.602l3.186-9.602h1.054
		l3.185,9.602l2.998-9.602h1.312l-3.677,11.313H409.121z"/>
	<path fill="#332B29" d="M428.144,440.09v-1.336c-1.008,1.101-2.272,1.617-3.842,1.617c-1.944,0-3.958-1.336-3.958-3.771
		c0-2.46,1.991-3.748,3.958-3.748c1.569,0,2.857,0.517,3.842,1.617v-2.297c0-1.687-1.36-2.6-3.022-2.6
		c-1.429,0-2.53,0.493-3.56,1.663l-0.679-0.844c1.171-1.264,2.482-1.896,4.356-1.896c2.294,0,4.123,1.101,4.123,3.63v7.964H428.144z
		 M428.144,437.865v-2.484c-0.797-1.054-2.062-1.568-3.42-1.568c-1.85,0-3.091,1.194-3.091,2.811c0,1.593,1.241,2.787,3.091,2.787
		C426.082,439.41,427.347,438.896,428.144,437.865z"/>
	<path fill="#332B29" d="M437.844,440.09v-11.313h1.218v1.943c0.96-1.266,2.249-2.179,3.817-2.179v1.336
		c-0.211-0.048-0.375-0.048-0.609-0.048c-1.147,0-2.694,1.03-3.208,2.015v8.245H437.844z"/>
	<path fill="#332B29" d="M449.322,434.421c0-3.279,2.295-5.925,5.434-5.925c3.442,0,5.34,2.717,5.34,5.996v0.327h-9.462
		c0.118,2.46,1.756,4.497,4.427,4.497c1.428,0,2.74-0.538,3.699-1.569l0.633,0.796c-1.125,1.172-2.553,1.828-4.426,1.828
		C451.664,440.371,449.322,437.911,449.322,434.421z M454.731,429.549c-2.669,0-4.004,2.342-4.098,4.31h8.22
		C458.831,431.938,457.566,429.549,454.731,429.549z"/>
	<path fill="#332B29" d="M490.69,440.09l-3.748-13.422l-3.748,13.422h-1.499l-4.473-15.622h1.499l3.771,13.748l3.841-13.748h1.218
		l3.818,13.748l3.771-13.748h1.499l-4.45,15.622H490.69z"/>
	<path fill="#332B29" d="M503.342,426.061c0-0.517,0.445-0.915,0.937-0.915c0.514,0,0.937,0.398,0.937,0.915
		c0,0.514-0.423,0.937-0.937,0.937C503.787,426.997,503.342,426.574,503.342,426.061z M503.669,440.09v-11.313h1.218v11.313H503.669
		z"/>
	<path fill="#332B29" d="M513.602,437.911v-8.058h-1.874v-1.076h1.874v-3.092h1.241v3.092h2.297v1.076h-2.297v7.87
		c0,0.913,0.375,1.547,1.173,1.547c0.538,0,1.006-0.26,1.264-0.54l0.468,0.937c-0.444,0.423-0.982,0.704-1.919,0.704
		C514.329,440.371,513.602,439.458,513.602,437.911z"/>
	<path fill="#332B29" d="M532.13,440.09v-7.707c0-2.179-1.101-2.786-2.739-2.786c-1.453,0-2.952,0.913-3.678,1.943v8.55h-1.218
		v-15.622h1.218v6.018c0.819-0.982,2.436-1.989,4.074-1.989c2.297,0,3.561,1.076,3.561,3.63v7.964H532.13z"/>
	<path fill="#332B29" d="M541.197,434.421c0-3.302,2.109-5.925,5.41-5.925c3.351,0,5.458,2.623,5.458,5.925
		c0,3.303-2.107,5.95-5.458,5.95C543.307,440.371,541.197,437.724,541.197,434.421z M550.754,434.421
		c0-2.506-1.476-4.824-4.146-4.824c-2.623,0-4.122,2.318-4.122,4.824c0,2.529,1.499,4.85,4.122,4.85
		C549.278,439.271,550.754,436.95,550.754,434.421z"/>
	<path fill="#332B29" d="M567.525,440.09v-1.663c-0.912,1.031-2.436,1.944-4.074,1.944c-2.296,0-3.56-1.079-3.56-3.63v-7.964h1.218
		v7.683c0,2.2,1.101,2.811,2.741,2.811c1.451,0,2.926-0.867,3.675-1.874v-8.619h1.219v11.313H567.525z"/>
	<path fill="#332B29" d="M577.461,437.911v-8.058h-1.874v-1.076h1.874v-3.092h1.242v3.092h2.294v1.076h-2.294v7.87
		c0,0.913,0.375,1.547,1.17,1.547c0.538,0,1.007-0.26,1.266-0.54l0.469,0.937c-0.447,0.423-0.985,0.704-1.922,0.704
		C578.187,440.371,577.461,439.458,577.461,437.911z"/>
	<path fill="#332B29" d="M598.824,440.09v-15.622h1.359v14.404h7.564v1.218H598.824z"/>
	<path fill="#332B29" d="M614.801,426.061c0-0.517,0.446-0.915,0.937-0.915c0.517,0,0.938,0.398,0.938,0.915
		c0,0.514-0.421,0.937-0.938,0.937C615.247,426.997,614.801,426.574,614.801,426.061z M615.13,440.09v-11.313h1.218v11.313H615.13z"
		/>
	<path fill="#332B29" d="M638.295,440.09v-7.918c0-1.593-0.68-2.575-2.272-2.575c-1.219,0-2.6,0.889-3.231,1.92v8.573h-1.242v-7.918
		c0-1.593-0.655-2.575-2.248-2.575c-1.218,0-2.575,0.913-3.255,1.943v8.55h-1.219v-11.313h1.219v1.708
		c0.468-0.726,2.013-1.989,3.653-1.989c1.756,0,2.693,1.031,2.974,2.131c0.632-1.055,2.155-2.131,3.748-2.131
		c2.085,0,3.092,1.17,3.092,3.442v8.151H638.295z"/>
	<path fill="#332B29" d="M647.668,426.061c0-0.517,0.446-0.915,0.937-0.915c0.517,0,0.937,0.398,0.937,0.915
		c0,0.514-0.42,0.937-0.937,0.937C648.114,426.997,647.668,426.574,647.668,426.061z M647.996,440.09v-11.313h1.219v11.313H647.996z
		"/>
	<path fill="#332B29" d="M657.928,437.911v-8.058h-1.874v-1.076h1.874v-3.092h1.241v3.092h2.297v1.076h-2.297v7.87
		c0,0.913,0.375,1.547,1.173,1.547c0.538,0,1.006-0.26,1.264-0.54l0.468,0.937c-0.444,0.423-0.982,0.704-1.919,0.704
		C658.655,440.371,657.928,439.458,657.928,437.911z"/>
	<path fill="#332B29" d="M667.837,438.566l0.728-0.889c0.726,0.913,2.061,1.662,3.653,1.662c1.896,0,3.021-0.984,3.021-2.296
		c0-3.092-7.143-1.334-7.143-5.41c0-1.732,1.475-3.138,4.028-3.138c1.943,0,3.231,0.75,4.051,1.663l-0.678,0.867
		c-0.656-0.892-1.874-1.499-3.373-1.499c-1.758,0-2.811,0.889-2.811,2.061c0,2.833,7.12,1.101,7.12,5.456
		c0,1.828-1.405,3.327-4.239,3.327C670.366,440.371,668.961,439.832,667.837,438.566z"/>
</g>
</svg>
