<?xml version="1.0" encoding="UTF-8" standalone="no"?>
<!-- Generator: Adobe Illustrator 16.0.0, SVG Export Plug-In . SVG Version: 6.00 Build 0)  -->

<svg
   xmlns:dc="http://purl.org/dc/elements/1.1/"
   xmlns:cc="http://creativecommons.org/ns#"
   xmlns:rdf="http://www.w3.org/1999/02/22-rdf-syntax-ns#"
   xmlns:svg="http://www.w3.org/2000/svg"
   xmlns="http://www.w3.org/2000/svg"
   xmlns:sodipodi="http://sodipodi.sourceforge.net/DTD/sodipodi-0.dtd"
   xmlns:inkscape="http://www.inkscape.org/namespaces/inkscape"
   version="1.1"
   id="Layer_1"
   x="0px"
   y="0px"
   width="1024px"
   height="768px"
   viewBox="0 0 1024 768"
   enable-background="new 0 0 1024 768"
   xml:space="preserve"
   sodipodi:docname="Boundless Notions Final Logo-cleaned up.svg"
   inkscape:version="0.92.4 5da689c313, 2019-01-14"><metadata
   id="metadata358"><rdf:RDF><cc:Work
       rdf:about=""><dc:format>image/svg+xml</dc:format><dc:type
         rdf:resource="http://purl.org/dc/dcmitype/StillImage" /><dc:title></dc:title></cc:Work></rdf:RDF></metadata><defs
   id="defs356">
	<linearGradient
   y2="235.7148"
   x2="486.2132"
   y1="274.76611"
   x1="501.0527"
   gradientUnits="userSpaceOnUse"
   id="SVGID_1_">
		<stop
   id="stop2"
   style="stop-color:#6A6A6A"
   offset="0.0108" />
		<stop
   id="stop4"
   style="stop-color:#D7D7D7"
   offset="0.7" />
		<stop
   id="stop6"
   style="stop-color:#C4D36E"
   offset="1" />
	</linearGradient>
	
	<linearGradient
   y2="279.94269"
   x2="508.77661"
   y1="341.97269"
   x1="473.02151"
   gradientUnits="userSpaceOnUse"
   id="SVGID_2_">
		<stop
   id="stop11"
   style="stop-color:#DADBDA"
   offset="0" />
		<stop
   id="stop13"
   style="stop-color:#D7D8D7"
   offset="0.0497" />
		<stop
   id="stop15"
   style="stop-color:#CDCECC"
   offset="0.0909" />
		<stop
   id="stop17"
   style="stop-color:#BBBDBB"
   offset="0.1291" />
		<stop
   id="stop19"
   style="stop-color:#A3A5A3"
   offset="0.1655" />
		<stop
   id="stop21"
   style="stop-color:#858684"
   offset="0.2002" />
		<stop
   id="stop23"
   style="stop-color:#6F716E"
   offset="0.2204" />
		<stop
   id="stop25"
   style="stop-color:#FFFFFF"
   offset="0.5484" />
		<stop
   id="stop27"
   style="stop-color:#CEEDF8"
   offset="0.5924" />
		<stop
   id="stop29"
   style="stop-color:#A2DDF2"
   offset="0.6389" />
		<stop
   id="stop31"
   style="stop-color:#7FD0ED"
   offset="0.6839" />
		<stop
   id="stop33"
   style="stop-color:#66C7E9"
   offset="0.7261" />
		<stop
   id="stop35"
   style="stop-color:#57C2E7"
   offset="0.7646" />
		<stop
   id="stop37"
   style="stop-color:#52C0E6"
   offset="0.796" />
		<stop
   id="stop39"
   style="stop-color:#1450A0"
   offset="1" />
	</linearGradient>
	
	<linearGradient
   y2="282.82129"
   x2="565.18799"
   y1="282.82129"
   x1="503.62161"
   gradientUnits="userSpaceOnUse"
   id="SVGID_3_">
		<stop
   id="stop44"
   style="stop-color:#9BB32E"
   offset="0" />
		<stop
   id="stop46"
   style="stop-color:#0CA6EA"
   offset="1" />
	</linearGradient>
	
	
	
	
		<radialGradient
   gradientUnits="userSpaceOnUse"
   gradientTransform="matrix(1,0,0,1.5548,0,-141.9714)"
   r="46.105499"
   cy="255.90581"
   cx="514.66022"
   id="SVGID_6_">
		<stop
   id="stop69"
   style="stop-color:#D6DF48"
   offset="0.35" />
		<stop
   id="stop71"
   style="stop-color:#718F3A"
   offset="0.8242" />
	</radialGradient>
	
	
	<radialGradient
   gradientUnits="userSpaceOnUse"
   r="24.2052"
   cy="238.8252"
   cx="501.5947"
   id="SVGID_7_"
   gradientTransform="translate(-117.15254,3.4576271)">
		<stop
   id="stop78"
   style="stop-color:#FFFFFF"
   offset="0" />
		<stop
   id="stop80"
   style="stop-color:#000000"
   offset="1" />
	</radialGradient>
	
	
	
		<radialGradient
   gradientUnits="userSpaceOnUse"
   gradientTransform="matrix(0.9208,0.39,-0.2431,0.5739,116.1291,-77.6724)"
   r="59.5485"
   cy="304.51999"
   cx="531.89258"
   id="SVGID_9_">
		<stop
   id="stop94"
   style="stop-color:#56CBE6"
   offset="0.1" />
		<stop
   id="stop96"
   style="stop-color:#1450A0"
   offset="1" />
	</radialGradient>
	
	<radialGradient
   gradientUnits="userSpaceOnUse"
   r="31.6859"
   cy="303.51761"
   cx="534.03809"
   id="SVGID_10_">
		<stop
   id="stop101"
   style="stop-color:#008DD5"
   offset="0" />
		<stop
   id="stop103"
   style="stop-color:#028AD2"
   offset="0.2648" />
		<stop
   id="stop105"
   style="stop-color:#077FC8"
   offset="0.4845" />
		<stop
   id="stop107"
   style="stop-color:#106EB7"
   offset="0.6881" />
		<stop
   id="stop109"
   style="stop-color:#1D569F"
   offset="0.8808" />
		<stop
   id="stop111"
   style="stop-color:#27438C"
   offset="1" />
	</radialGradient>
	
	
		<radialGradient
   gradientUnits="userSpaceOnUse"
   gradientTransform="matrix(-0.4928,0.8702,-0.8702,-0.4928,912.90259,-126.07695)"
   r="24.2038"
   cy="226.0625"
   cx="594.82709"
   id="SVGID_11_">
		<stop
   id="stop116"
   style="stop-color:#FFFFFF"
   offset="0" />
		<stop
   id="stop118"
   style="stop-color:#000000"
   offset="1" />
	</radialGradient>
	
	
	<linearGradient
   y2="312.23169"
   x2="483.72849"
   y1="279.45361"
   x1="482.27979"
   gradientUnits="userSpaceOnUse"
   id="SVGID_13_">
		<stop
   id="stop132"
   style="stop-color:#7A7A7A"
   offset="0" />
		<stop
   id="stop134"
   style="stop-color:#D7D7D7"
   offset="0.5" />
		<stop
   id="stop136"
   style="stop-color:#6A6A6A"
   offset="0.9892" />
	</linearGradient>
	
	
	
		<radialGradient
   gradientUnits="userSpaceOnUse"
   gradientTransform="matrix(-0.487,-0.8734,0.8734,-0.487,580.10139,892.63943)"
   r="24.204599"
   cy="122.9424"
   cx="624.60352"
   id="SVGID_14_">
		<stop
   id="stop143"
   style="stop-color:#FFFFFF"
   offset="0" />
		<stop
   id="stop145"
   style="stop-color:#000000"
   offset="1" />
	</radialGradient>
	
	
	
	
	
	
	
	
	
	
	
	
</defs><sodipodi:namedview
   pagecolor="#ffffff"
   bordercolor="#666666"
   borderopacity="1"
   objecttolerance="10"
   gridtolerance="10"
   guidetolerance="10"
   inkscape:pageopacity="0"
   inkscape:pageshadow="2"
   inkscape:window-width="1920"
   inkscape:window-height="1043"
   id="namedview354"
   showgrid="false"
   inkscape:zoom="1.2291667"
   inkscape:cx="496.46041"
   inkscape:cy="483.86812"
   inkscape:window-x="0"
   inkscape:window-y="0"
   inkscape:window-maximized="1"
   inkscape:current-layer="Layer_1" />











<g
   id="g1372"><path
     d="m 516.795,231.729 c 0,0 -40.372,-4.737 -49.504,19.255 -9.132,23.992 26.278,68.535 49.677,66.647 l 0.566,-1.014 c 0,0 -91.047,-54.162 -0.739,-84.888 z"
     id="path9"
     inkscape:connector-curvature="0"
     style="fill:url(#SVGID_1_)" /><path
     d="m 453.146,303.383 c 0,0 12.676,40.531 49.233,40.435 l 13.212,-8.445 14.109,-18.66 6.242,-33.893 -2.283,-15.124 -4.854,-4.053 -2.488,0.33 c 0,0 4.844,28.925 -11.87,58.423 l -10.505,-3.723 -27.261,-0.732 z"
     id="path42"
     inkscape:connector-curvature="0"
     style="fill:url(#SVGID_2_)" /><path
     d="m 531.079,260.941 -0.529,0.633 -0.882,-0.029 -20.114,2.505 -22.117,3.946 -4.445,6.489 -2.34,6.576 v 0 l 0.844,1.542 c 0,0 18.426,-15.846 49.046,-19.177 l 29.814,41.713 c 21.382,-52.178 -29.277,-44.198 -29.277,-44.198 z"
     id="path49"
     inkscape:connector-curvature="0"
     style="fill:url(#SVGID_3_)" /><g
     id="g58">
		<radialGradient
   id="SVGID_4_"
   cx="484.6929"
   cy="262.50729"
   r="8.7742996"
   gradientUnits="userSpaceOnUse">
			<stop
   offset="0"
   style="stop-color:#FFFFFF"
   id="stop51" />
			<stop
   offset="1"
   style="stop-color:#000000"
   id="stop53" />
		</radialGradient>
		<polygon
   points="490.689,254.578 491.187,255.56 474.525,263.792 474.116,262.987 "
   id="polygon56"
   style="fill:url(#SVGID_4_)" />
	</g><g
     id="g67">
		
			<radialGradient
   id="SVGID_5_"
   cx="536.74121"
   cy="366.7529"
   r="8.7749996"
   gradientTransform="matrix(0.4211,0.907,-0.9071,0.4211,604.289,-311.9792)"
   gradientUnits="userSpaceOnUse">
			<stop
   offset="0"
   style="stop-color:#FFFFFF"
   id="stop60" />
			<stop
   offset="1"
   style="stop-color:#000000"
   id="stop62" />
		</radialGradient>
		<polygon
   points="507.348,331.383 506.667,332.249 492.182,320.604 492.741,319.894 "
   id="polygon65"
   style="fill:url(#SVGID_5_)" />
	</g><path
     d="m 543.788,261.844 c 18.964,1.691 21.813,17.538 21.813,17.538 0,0 -2.921,-31.517 -28.677,-43.931 -2.409,-1.116 -4.301,-1.747 -5.604,-2.102 -27.053,-6.329 -83.043,5.23 -50.669,47.712 10e-4,0 22.887,-22.807 63.137,-19.217 z"
     id="path74"
     inkscape:connector-curvature="0"
     style="fill:url(#SVGID_6_)" /><path
     d="m 470.938,257.912 c 0,0 -0.982,6.261 5.033,15.1 0,0 21.26,-30.375 80.676,-19.326 l -4.687,-6.294 c 10e-4,0 -35.969,-9.613 -81.022,10.52 z"
     id="path76"
     inkscape:connector-curvature="0"
     style="fill:#66853e" /><path
     d="m 514.31,327.858 c -9.665,17.847 -27.555,13.012 -27.555,13.012 0,0 30.409,10.316 53.902,-5.978 2.161,-1.547 3.639,-2.883 4.591,-3.841 18.838,-20.423 36.477,-74.642 -16.443,-67.407 0,10e-4 5.506,29.101 -14.495,64.214 z"
     id="path99"
     inkscape:connector-curvature="0"
     style="fill:url(#SVGID_9_)" /><path
     d="m 553.63,266.403 c 0,0 -4.966,-3.938 -15.622,-3.058 0,0 15.33,34.215 -23.562,80.473 l 8.367,-1.329 c 0,0 26.134,-26.96 30.817,-76.086 z"
     id="path114"
     inkscape:connector-curvature="0"
     style="fill:url(#SVGID_10_)" /><path
     d="m 469.486,271.719 c -10.216,-17.536 3.827,-29.707 3.827,-29.707 0,0 -25.235,20.013 -23.537,48.553 0.198,2.649 0.571,4.608 0.893,5.917 7.647,26.712 44.959,70.11 66.299,21.148 0,10e-4 -27.89,-10.568 -47.482,-45.911 z"
     id="path139"
     inkscape:connector-curvature="0"
     style="fill:url(#SVGID_13_)" /><path
     d="m 501.737,337.114 c 0,0 6.142,-2.042 10.933,-11.602 0,0 -37.375,-4.701 -56.661,-61.977 l -3.404,7.773 c 0,0 9.607,36.26 49.132,65.806 z"
     id="path141"
     inkscape:connector-curvature="0"
     style="fill:#535250" /><path
     id="path273"
     d="m 272.776,413.217 h -22.932 v -45.049 c 0,-2.895 2.301,-5.417 5.195,-5.417 h 18.554 c 9.5,0 15.808,3.785 15.808,12.764 0,5.344 -2.152,8.535 -6.086,10.464 4.973,1.932 7.867,5.195 7.867,11.876 0,10.463 -7.496,15.362 -18.406,15.362 z m -1.336,-41.71 h -11.429 v 10.835 h 11.578 c 4.082,0 7.421,-1.261 7.421,-5.492 0,-4.229 -2.894,-5.343 -7.57,-5.343 z m 0.446,19.371 h -11.875 v 13.21 h 12.022 c 5.122,0 8.238,-1.484 8.238,-6.53 10e-4,-5.197 -3.042,-6.68 -8.385,-6.68 z"
     inkscape:connector-curvature="0"
     style="fill:#332b29" /><path
     id="path275"
     d="m 328.74,393.771 c 0,13.508 -6.011,20.336 -17.886,20.336 -11.874,0 -17.811,-6.828 -17.811,-20.336 0,-13.656 5.937,-20.409 17.811,-20.409 11.875,10e-4 17.886,6.754 17.886,20.409 z m -25.678,0 c 0.074,7.645 2.671,11.504 7.718,11.504 5.046,0 7.569,-4.007 7.644,-11.801 0,-7.644 -2.523,-11.429 -7.57,-11.429 -5.195,10e-4 -7.792,3.934 -7.792,11.726 z"
     inkscape:connector-curvature="0"
     style="fill:#332b29" /><path
     id="path277"
     d="m 365.038,397.558 c 0,6.752 -1.707,11.206 -5.195,13.358 -3.488,2.004 -7.347,3.041 -11.577,3.041 -4.082,0 -7.718,-1.11 -11.132,-3.338 -3.414,-2.152 -5.121,-6.457 -5.121,-13.062 v -23.602 h 9.871 v 25.604 c 0,4.379 2.227,6.531 6.679,6.531 4.454,0 6.68,-2.152 6.68,-6.531 v -20.707 c -0.074,-3.266 1.484,-4.898 4.75,-4.898 h 5.047 v 23.604 z"
     inkscape:connector-curvature="0"
     style="fill:#332b29" /><path
     id="path279"
     d="m 395.175,413.217 c -3.266,-0.223 -4.898,-1.782 -4.898,-4.898 v -20.186 c -0.223,-4.083 -2.449,-6.087 -6.828,-6.087 -4.379,0 -6.605,2.003 -6.679,6.087 v 25.084 h -10.02 v -23.082 c 0,-11.207 5.64,-16.772 16.846,-16.772 11.207,0 16.699,5.565 16.624,16.772 v 23.082 z"
     inkscape:connector-curvature="0"
     style="fill:#332b29" /><path
     id="path281"
     d="m 438.298,367.723 v 28.5 c 0,11.798 -6.16,17.661 -18.405,17.587 -12.171,-0.223 -18.257,-6.826 -18.257,-19.888 0,-13.361 5.195,-20.188 15.66,-20.559 4.898,0 8.682,2.003 11.206,6.085 V 362.75 h 4.899 c 2.67,0 4.897,2.301 4.897,4.973 z m -26.495,25.752 c -0.074,7.941 2.598,11.948 8.238,11.948 5.641,0 8.46,-4.007 8.46,-11.948 -0.223,-7.57 -2.969,-11.28 -8.312,-11.28 -5.343,0 -8.088,3.709 -8.386,11.28 z"
     inkscape:connector-curvature="0"
     style="fill:#332b29" /><path
     id="path283"
     d="m 450.03,367.574 v 45.643 h -9.871 V 362.75 h 5.121 c 2.597,0 4.75,2.227 4.75,4.824 z"
     inkscape:connector-curvature="0"
     style="fill:#332b29" /><path
     id="path285"
     d="m 469.4,414.107 c -11.874,-0.372 -17.812,-7.274 -17.812,-20.633 0,-13.359 6.011,-20.038 17.96,-20.112 12.468,0 18.331,7.644 17.589,23.007 h -25.381 c 0.372,6.012 2.969,9.053 7.792,9.053 2.301,0 4.453,-0.965 6.382,-2.819 0.89,-0.965 2.003,-1.409 3.34,-1.409 h 7.273 c -2.152,8.312 -7.495,12.913 -17.143,12.913 z m -7.496,-24.787 h 14.769 c -0.594,-5.197 -3.043,-7.869 -7.273,-7.869 -4.23,0 -6.753,2.673 -7.496,7.869 z"
     inkscape:connector-curvature="0"
     style="fill:#332b29" /><path
     id="path287"
     d="m 507.405,406.092 c 4.156,0 6.235,-1.188 6.235,-3.71 0,-2.005 -3.415,-3.637 -10.168,-4.824 -8.684,-1.56 -13.136,-5.418 -13.211,-11.579 0,-8.46 6.68,-12.468 15.66,-12.616 5.046,0 9.055,1.113 12.021,3.339 2.896,2.301 4.453,5.493 4.676,9.574 h -6.233 c -2.301,-0.074 -3.785,-0.891 -4.379,-2.449 -0.667,-1.706 -2.671,-2.671 -5.937,-2.671 -3.858,0 -5.789,1.04 -5.789,3.043 0,2.003 2.523,3.562 7.644,4.527 6.679,1.336 11.058,3.044 13.211,5.047 1.854,1.93 2.745,4.305 2.745,6.977 0,9.647 -7.569,13.209 -17.959,13.209 -5.493,0 -9.648,-1.188 -12.32,-3.485 -2.969,-2.227 -4.453,-5.642 -4.453,-10.169 h 10.092 c 0.225,4.303 3.342,5.787 8.165,5.787 z"
     inkscape:connector-curvature="0"
     style="fill:#332b29" /><path
     id="path289"
     d="m 543.852,406.092 c 4.157,0 6.235,-1.188 6.235,-3.71 0,-2.005 -3.414,-3.637 -10.168,-4.824 -8.683,-1.56 -13.136,-5.418 -13.21,-11.579 0,-8.46 6.68,-12.468 15.658,-12.616 5.047,0 9.056,1.113 12.022,3.339 2.896,2.301 4.454,5.493 4.676,9.574 h -6.233 c -2.301,-0.074 -3.784,-0.891 -4.379,-2.449 -0.667,-1.706 -2.672,-2.671 -5.938,-2.671 -3.858,0 -5.789,1.04 -5.789,3.043 0,2.003 2.523,3.562 7.646,4.527 6.678,1.336 11.058,3.044 13.21,5.047 1.854,1.93 2.745,4.305 2.745,6.977 0,9.647 -7.569,13.209 -17.96,13.209 -5.492,0 -9.647,-1.188 -12.318,-3.485 -2.97,-2.227 -4.453,-5.642 -4.453,-10.169 h 10.092 c 0.224,4.303 3.339,5.787 8.164,5.787 z"
     inkscape:connector-curvature="0"
     style="fill:#332b29" /><g
     id="g307">
	<g
   id="g305">
		<path
   style="fill:#606771"
   inkscape:connector-curvature="0"
   id="path291"
   d="m 608.208,412.936 h -5.739 l -29.5,-44.717 v 44.717 h -5.341 v -51.392 h 6.942 l 28.365,43.116 v -43.116 h 5.272 v 51.392 z" />
		<path
   style="fill:#606771"
   inkscape:connector-curvature="0"
   id="path293"
   d="m 643.644,408.132 c -3.938,3.937 -8.676,5.871 -14.149,5.673 -5.272,-0.135 -9.811,-2.137 -13.481,-6.007 -3.672,-3.871 -5.474,-8.478 -5.474,-13.815 0,-5.541 2.002,-10.346 5.941,-14.285 3.938,-4.004 8.676,-5.939 14.149,-5.739 5.272,0.201 9.811,2.203 13.482,6.14 3.669,3.872 5.538,8.477 5.538,13.817 0,5.472 -2.002,10.211 -6.006,14.216 z m -14.081,0.666 c 4.202,0.201 7.74,-1.2 10.678,-4.338 3.002,-3.138 4.405,-6.741 4.338,-10.946 -0.133,-4.004 -1.602,-7.408 -4.338,-10.278 -2.736,-2.87 -6.007,-4.271 -9.879,-4.271 -4.069,-0.066 -7.475,1.402 -10.345,4.271 -2.869,2.87 -4.271,6.274 -4.338,10.346 -0.067,4.004 1.2,7.54 3.938,10.545 2.736,3.002 6.006,4.538 9.946,4.671 z" />
		<path
   style="fill:#606771"
   inkscape:connector-curvature="0"
   id="path295"
   d="m 665.331,413.737 c -9.277,0 -13.884,-3.937 -13.884,-11.813 v -40.38 h 5.141 v 13.282 h 8.743 v 4.739 h -8.743 v 21.492 c 0,5.672 2.937,8.476 8.743,8.476 z" />
		<path
   style="fill:#606771"
   inkscape:connector-curvature="0"
   id="path297"
   d="m 671.469,370.355 h -5.005 v -8.877 h 5.005 z m 0,42.581 h -5.005 v -38.042 h 5.005 z" />
		<path
   style="fill:#606771"
   inkscape:connector-curvature="0"
   id="path299"
   d="m 706.841,408.132 c -3.937,3.937 -8.676,5.871 -14.149,5.673 -5.272,-0.135 -9.811,-2.137 -13.481,-6.007 -3.672,-3.871 -5.474,-8.478 -5.474,-13.815 0,-5.541 2.003,-10.346 5.941,-14.285 3.938,-4.004 8.676,-5.939 14.149,-5.739 5.272,0.201 9.811,2.203 13.482,6.14 3.669,3.872 5.538,8.477 5.538,13.817 10e-4,5.472 -2.001,10.211 -6.006,14.216 z m -14.081,0.666 c 4.202,0.201 7.741,-1.2 10.678,-4.338 3.002,-3.138 4.405,-6.741 4.338,-10.946 -0.133,-4.004 -1.602,-7.408 -4.338,-10.278 -2.736,-2.87 -6.007,-4.271 -9.879,-4.271 -4.069,-0.066 -7.475,1.402 -10.345,4.271 -2.869,2.87 -4.271,6.274 -4.338,10.346 -0.067,4.004 1.201,7.54 3.938,10.545 2.736,3.002 6.006,4.538 9.946,4.671 z" />
		<path
   style="fill:#606771"
   inkscape:connector-curvature="0"
   id="path301"
   d="m 748.218,412.936 h -5.14 v -22.224 c 0,-3.205 -1.203,-5.941 -3.538,-8.278 -2.336,-2.336 -5.005,-3.47 -8.143,-3.47 -3.137,0 -5.939,1.134 -8.274,3.47 -2.338,2.336 -3.471,5.073 -3.471,8.278 v 22.224 h -5.14 v -21.689 c 0,-4.94 1.601,-9.012 4.806,-12.282 3.203,-3.271 7.208,-4.939 12.079,-4.939 4.807,0 8.812,1.668 12.014,4.939 3.203,3.27 4.807,7.341 4.807,12.282 z" />
		<path
   style="fill:#606771"
   inkscape:connector-curvature="0"
   id="path303"
   d="m 755.488,402.924 c 0,1.269 0.734,2.604 2.136,4.005 1.4,1.403 2.937,2.07 4.538,2.002 2.135,-0.065 3.804,-0.666 5.072,-1.935 1.135,-1.135 1.669,-2.669 1.736,-4.538 0.065,-3.271 -1.804,-5.474 -5.541,-6.674 l -4.471,-1.403 c -4.673,-1.466 -7.142,-4.671 -7.342,-9.544 -0.134,-2.937 0.867,-5.473 2.937,-7.542 2.135,-2.069 4.671,-3.204 7.676,-3.337 2.602,-0.133 5.005,0.734 7.207,2.536 2.271,1.802 3.472,4.004 3.672,6.673 l 0.065,1.135 h -5.338 v -0.867 c 0,-2.67 -2.672,-4.472 -5.606,-4.472 -2.872,0.066 -5.272,2.269 -5.34,5.206 -0.201,2.737 1.468,4.672 4.871,5.807 l 4.406,1.469 c 5.071,1.734 7.809,5.138 8.142,10.145 0.268,3.403 -0.935,6.407 -3.604,8.943 -2.669,2.469 -5.739,3.604 -9.21,3.403 -3.205,-0.2 -5.874,-1.536 -8.076,-3.871 -2.136,-2.336 -3.203,-5.14 -3.203,-8.41 h 5.272 v 1.269 z" />
	</g>
</g><g
     id="g351">
	<path
   style="fill:#332b29"
   inkscape:connector-curvature="0"
   id="path309"
   d="m 340.227,437.887 0.867,-1.007 c 1.007,1.148 2.647,2.272 4.896,2.272 3.185,0 4.099,-1.779 4.099,-3.115 0,-4.591 -9.369,-2.2 -9.369,-7.658 0,-2.554 2.295,-4.17 5.129,-4.17 2.318,0 4.099,0.821 5.293,2.202 l -0.89,0.982 c -1.125,-1.357 -2.717,-1.967 -4.474,-1.967 -2.084,0 -3.654,1.196 -3.654,2.882 0,4.005 9.369,1.803 9.369,7.635 0,2.016 -1.335,4.428 -5.551,4.428 -2.576,0 -4.52,-1.055 -5.715,-2.484 z" />
	<path
   style="fill:#332b29"
   inkscape:connector-curvature="0"
   id="path311"
   d="m 358.71,434.421 c 0,-3.302 2.108,-5.925 5.41,-5.925 3.35,0 5.458,2.623 5.458,5.925 0,3.303 -2.108,5.95 -5.458,5.95 -3.302,0 -5.41,-2.647 -5.41,-5.95 z m 9.557,0 c 0,-2.506 -1.476,-4.824 -4.146,-4.824 -2.623,0 -4.122,2.318 -4.122,4.824 0,2.529 1.499,4.85 4.122,4.85 2.67,0 4.146,-2.321 4.146,-4.85 z" />
	<path
   style="fill:#332b29"
   inkscape:connector-curvature="0"
   id="path313"
   d="m 377.802,440.09 v -10.236 h -1.874 v -1.076 h 1.874 v -1.03 c 0,-2.203 1.171,-3.515 3.068,-3.515 0.796,0 1.429,0.163 2.155,0.798 l -0.585,0.889 c -0.375,-0.351 -0.843,-0.586 -1.452,-0.586 -1.288,0 -1.944,0.891 -1.944,2.414 v 1.03 h 2.295 v 1.076 h -2.295 v 10.236 z" />
	<path
   style="fill:#332b29"
   inkscape:connector-curvature="0"
   id="path315"
   d="m 388.532,437.911 v -8.058 h -1.874 v -1.076 h 1.874 v -3.092 h 1.241 v 3.092 h 2.295 v 1.076 h -2.295 v 7.87 c 0,0.913 0.375,1.547 1.171,1.547 0.539,0 1.007,-0.26 1.265,-0.54 l 0.468,0.937 c -0.445,0.423 -0.983,0.704 -1.92,0.704 -1.499,0 -2.225,-0.913 -2.225,-2.46 z" />
	<path
   style="fill:#332b29"
   inkscape:connector-curvature="0"
   id="path317"
   d="m 409.121,440.09 -3.162,-9.674 -3.185,9.674 h -1.171 l -3.677,-11.313 h 1.312 l 2.998,9.602 3.186,-9.602 h 1.054 l 3.185,9.602 2.998,-9.602 h 1.312 l -3.677,11.313 z" />
	<path
   style="fill:#332b29"
   inkscape:connector-curvature="0"
   id="path319"
   d="m 428.144,440.09 v -1.336 c -1.008,1.101 -2.272,1.617 -3.842,1.617 -1.944,0 -3.958,-1.336 -3.958,-3.771 0,-2.46 1.991,-3.748 3.958,-3.748 1.569,0 2.857,0.517 3.842,1.617 v -2.297 c 0,-1.687 -1.36,-2.6 -3.022,-2.6 -1.429,0 -2.53,0.493 -3.56,1.663 l -0.679,-0.844 c 1.171,-1.264 2.482,-1.896 4.356,-1.896 2.294,0 4.123,1.101 4.123,3.63 v 7.964 h -1.218 z m 0,-2.225 v -2.484 c -0.797,-1.054 -2.062,-1.568 -3.42,-1.568 -1.85,0 -3.091,1.194 -3.091,2.811 0,1.593 1.241,2.787 3.091,2.787 1.358,-10e-4 2.623,-0.515 3.42,-1.546 z" />
	<path
   style="fill:#332b29"
   inkscape:connector-curvature="0"
   id="path321"
   d="m 437.844,440.09 v -11.313 h 1.218 v 1.943 c 0.96,-1.266 2.249,-2.179 3.817,-2.179 v 1.336 c -0.211,-0.048 -0.375,-0.048 -0.609,-0.048 -1.147,0 -2.694,1.03 -3.208,2.015 v 8.245 h -1.218 z" />
	<path
   style="fill:#332b29"
   inkscape:connector-curvature="0"
   id="path323"
   d="m 449.322,434.421 c 0,-3.279 2.295,-5.925 5.434,-5.925 3.442,0 5.34,2.717 5.34,5.996 v 0.327 h -9.462 c 0.118,2.46 1.756,4.497 4.427,4.497 1.428,0 2.74,-0.538 3.699,-1.569 l 0.633,0.796 c -1.125,1.172 -2.553,1.828 -4.426,1.828 -3.303,0 -5.645,-2.46 -5.645,-5.95 z m 5.409,-4.872 c -2.669,0 -4.004,2.342 -4.098,4.31 h 8.22 c -0.022,-1.921 -1.287,-4.31 -4.122,-4.31 z" />
	<path
   style="fill:#332b29"
   inkscape:connector-curvature="0"
   id="path325"
   d="m 490.69,440.09 -3.748,-13.422 -3.748,13.422 h -1.499 l -4.473,-15.622 h 1.499 l 3.771,13.748 3.841,-13.748 h 1.218 l 3.818,13.748 3.771,-13.748 h 1.499 l -4.45,15.622 z" />
	<path
   style="fill:#332b29"
   inkscape:connector-curvature="0"
   id="path327"
   d="m 503.342,426.061 c 0,-0.517 0.445,-0.915 0.937,-0.915 0.514,0 0.937,0.398 0.937,0.915 0,0.514 -0.423,0.937 -0.937,0.937 -0.492,-10e-4 -0.937,-0.424 -0.937,-0.937 z m 0.327,14.029 v -11.313 h 1.218 v 11.313 z" />
	<path
   style="fill:#332b29"
   inkscape:connector-curvature="0"
   id="path329"
   d="m 513.602,437.911 v -8.058 h -1.874 v -1.076 h 1.874 v -3.092 h 1.241 v 3.092 h 2.297 v 1.076 h -2.297 v 7.87 c 0,0.913 0.375,1.547 1.173,1.547 0.538,0 1.006,-0.26 1.264,-0.54 l 0.468,0.937 c -0.444,0.423 -0.982,0.704 -1.919,0.704 -1.5,0 -2.227,-0.913 -2.227,-2.46 z" />
	<path
   style="fill:#332b29"
   inkscape:connector-curvature="0"
   id="path331"
   d="m 532.13,440.09 v -7.707 c 0,-2.179 -1.101,-2.786 -2.739,-2.786 -1.453,0 -2.952,0.913 -3.678,1.943 v 8.55 h -1.218 v -15.622 h 1.218 v 6.018 c 0.819,-0.982 2.436,-1.989 4.074,-1.989 2.297,0 3.561,1.076 3.561,3.63 v 7.964 h -1.218 z" />
	<path
   style="fill:#332b29"
   inkscape:connector-curvature="0"
   id="path333"
   d="m 541.197,434.421 c 0,-3.302 2.109,-5.925 5.41,-5.925 3.351,0 5.458,2.623 5.458,5.925 0,3.303 -2.107,5.95 -5.458,5.95 -3.3,0 -5.41,-2.647 -5.41,-5.95 z m 9.557,0 c 0,-2.506 -1.476,-4.824 -4.146,-4.824 -2.623,0 -4.122,2.318 -4.122,4.824 0,2.529 1.499,4.85 4.122,4.85 2.67,0 4.146,-2.321 4.146,-4.85 z" />
	<path
   style="fill:#332b29"
   inkscape:connector-curvature="0"
   id="path335"
   d="m 567.525,440.09 v -1.663 c -0.912,1.031 -2.436,1.944 -4.074,1.944 -2.296,0 -3.56,-1.079 -3.56,-3.63 v -7.964 h 1.218 v 7.683 c 0,2.2 1.101,2.811 2.741,2.811 1.451,0 2.926,-0.867 3.675,-1.874 v -8.619 h 1.219 v 11.313 h -1.219 z" />
	<path
   style="fill:#332b29"
   inkscape:connector-curvature="0"
   id="path337"
   d="m 577.461,437.911 v -8.058 h -1.874 v -1.076 h 1.874 v -3.092 h 1.242 v 3.092 h 2.294 v 1.076 h -2.294 v 7.87 c 0,0.913 0.375,1.547 1.17,1.547 0.538,0 1.007,-0.26 1.266,-0.54 l 0.469,0.937 c -0.447,0.423 -0.985,0.704 -1.922,0.704 -1.499,0 -2.225,-0.913 -2.225,-2.46 z" />
	<path
   style="fill:#332b29"
   inkscape:connector-curvature="0"
   id="path339"
   d="m 598.824,440.09 v -15.622 h 1.359 v 14.404 h 7.564 v 1.218 z" />
	<path
   style="fill:#332b29"
   inkscape:connector-curvature="0"
   id="path341"
   d="m 614.801,426.061 c 0,-0.517 0.446,-0.915 0.937,-0.915 0.517,0 0.938,0.398 0.938,0.915 0,0.514 -0.421,0.937 -0.938,0.937 -0.491,-10e-4 -0.937,-0.424 -0.937,-0.937 z m 0.329,14.029 v -11.313 h 1.218 v 11.313 z" />
	<path
   style="fill:#332b29"
   inkscape:connector-curvature="0"
   id="path343"
   d="m 638.295,440.09 v -7.918 c 0,-1.593 -0.68,-2.575 -2.272,-2.575 -1.219,0 -2.6,0.889 -3.231,1.92 v 8.573 h -1.242 v -7.918 c 0,-1.593 -0.655,-2.575 -2.248,-2.575 -1.218,0 -2.575,0.913 -3.255,1.943 v 8.55 h -1.219 v -11.313 h 1.219 v 1.708 c 0.468,-0.726 2.013,-1.989 3.653,-1.989 1.756,0 2.693,1.031 2.974,2.131 0.632,-1.055 2.155,-2.131 3.748,-2.131 2.085,0 3.092,1.17 3.092,3.442 v 8.151 h -1.219 z" />
	<path
   style="fill:#332b29"
   inkscape:connector-curvature="0"
   id="path345"
   d="m 647.668,426.061 c 0,-0.517 0.446,-0.915 0.937,-0.915 0.517,0 0.937,0.398 0.937,0.915 0,0.514 -0.42,0.937 -0.937,0.937 -0.491,-10e-4 -0.937,-0.424 -0.937,-0.937 z m 0.328,14.029 v -11.313 h 1.219 v 11.313 z" />
	<path
   style="fill:#332b29"
   inkscape:connector-curvature="0"
   id="path347"
   d="m 657.928,437.911 v -8.058 h -1.874 v -1.076 h 1.874 v -3.092 h 1.241 v 3.092 h 2.297 v 1.076 h -2.297 v 7.87 c 0,0.913 0.375,1.547 1.173,1.547 0.538,0 1.006,-0.26 1.264,-0.54 l 0.468,0.937 c -0.444,0.423 -0.982,0.704 -1.919,0.704 -1.5,0 -2.227,-0.913 -2.227,-2.46 z" />
	<path
   style="fill:#332b29"
   inkscape:connector-curvature="0"
   id="path349"
   d="m 667.837,438.566 0.728,-0.889 c 0.726,0.913 2.061,1.662 3.653,1.662 1.896,0 3.021,-0.984 3.021,-2.296 0,-3.092 -7.143,-1.334 -7.143,-5.41 0,-1.732 1.475,-3.138 4.028,-3.138 1.943,0 3.231,0.75 4.051,1.663 l -0.678,0.867 c -0.656,-0.892 -1.874,-1.499 -3.373,-1.499 -1.758,0 -2.811,0.889 -2.811,2.061 0,2.833 7.12,1.101 7.12,5.456 0,1.828 -1.405,3.327 -4.239,3.327 -1.828,10e-4 -3.233,-0.538 -4.357,-1.804 z" />
</g></g>
</svg>